<?xml version="1.0" standalone="no"?>
<!DOCTYPE svg PUBLIC "-//W3C//DTD SVG 20010904//EN"
 "http://www.w3.org/TR/2001/REC-SVG-20010904/DTD/svg10.dtd">
<svg version="1.0" xmlns="http://www.w3.org/2000/svg"
 width="700.000000pt" height="700.000000pt" viewBox="0 0 700.000000 700.000000"
 preserveAspectRatio="xMidYMid meet">
<metadata>
Created by potrace 1.14, written by Peter Selinger 2001-2017
</metadata>
<g transform="translate(0.000000,700.000000) scale(0.100000,-0.100000)"
fill="#000000" stroke="none">
<path d="M1832 5438 c-56 -9 -95 -32 -130 -74 -44 -53 -44 -56 -38 -371 l2
-123 -116 0 c-171 0 -257 -29 -348 -118 -54 -53 -88 -111 -108 -184 -9 -37
-12 -314 -11 -1245 l2 -1198 32 -65 c58 -119 145 -192 263 -224 83 -22 4177
-22 4260 0 102 27 206 108 249 191 50 100 49 52 47 1333 l-1 1195 -24 58 c-30
77 -93 151 -161 193 -111 67 -28 64 -1562 64 l-1387 0 1 188 c2 206 -4 252
-35 297 -61 86 -63 87 -509 88 -212 1 -404 -1 -426 -5z"/>
</g>
</svg>
